<?xml version="1.0" encoding="utf-8"?><svg xmlns="http://www.w3.org/2000/svg" xmlns:xlink="http://www.w3.org/1999/xlink" width="297" height="157" viewBox="0 0 297 157"><defs><path id="usa" d="M.06.466V156.94h223.258V.466z"/></defs><g fill="none" fill-rule="evenodd"><path fill="#4D4E4C" d="M99.235 16.459h.977V.565h-.977zM107.388.565h.908l9.059 12.465c.522.727 1.294 1.998 1.294 1.998h.046s-.114-1.203-.114-1.998V.565h.977v15.894h-.909L109.59 3.994c-.522-.726-1.294-1.998-1.294-1.998h-.046s.114 1.203.114 1.998v12.465h-.976V.565M130.392 1.474h-5.926V.565h12.828v.909h-5.926v14.985h-.976V1.474M142.201.565h8.696v.909h-7.719V7.99h6.334v.908h-6.334v6.653h8.15v.908h-9.127V.565M162.729 8.513c2.089 0 3.407-1.499 3.407-3.657 0-1.407-.704-2.542-1.863-3.064-.454-.205-.953-.318-2.224-.318h-3.633v7.039h4.313zm-5.29-7.948h4.655c1.476 0 2.225.16 2.861.477 1.316.659 2.202 1.998 2.202 3.814 0 2.271-1.317 3.974-3.178 4.383v.045s.159.182.363.568l3.564 6.607h-1.158l-3.769-7.038h-4.563v7.038h-.977V.565zm16.374 0h.908l9.059 12.465c.523.727 1.294 1.998 1.294 1.998h.045s-.113-1.203-.113-1.998V.565h.976v15.894h-.908l-9.059-12.465c-.523-.726-1.294-1.998-1.294-1.998h-.045s.113 1.203.113 1.998v12.465h-.976V.565m23.753 1.136s-.34 1.226-.59 1.907l-2.43 6.449h6.062l-2.407-6.449c-.249-.681-.59-1.907-.59-1.907h-.045zm3.383 9.264h-6.744l-2.043 5.494h-1.045L197.066.565h1.045l5.949 15.894h-1.044l-2.067-5.494zM211.805 1.474h-5.926V.565h12.828v.909h-5.926v14.985h-.976V1.474M223.615 16.459h.977V.565h-.977zM238.692 15.801c3.883 0 7.017-3.225 7.017-7.403 0-4.063-3.134-7.174-7.017-7.174-3.881 0-7.015 3.111-7.015 7.174 0 4.178 3.134 7.403 7.015 7.403zm0-15.508c4.428 0 8.038 3.542 8.038 8.105 0 4.678-3.61 8.334-8.038 8.334-4.426 0-8.037-3.656-8.037-8.334 0-4.563 3.611-8.105 8.037-8.105zm14.105.272h.908l9.06 12.465c.522.727 1.294 1.998 1.294 1.998h.045s-.114-1.203-.114-1.998V.565h.977v15.894h-.908l-9.06-12.465c-.522-.726-1.294-1.998-1.294-1.998h-.045s.113 1.203.113 1.998v12.465h-.976V.565m23.752 1.136s-.34 1.226-.59 1.907l-2.43 6.449h6.063l-2.406-6.449c-.25-.681-.591-1.907-.591-1.907h-.046zm3.384 9.264h-6.744l-2.043 5.494h-1.044L276.05.565h1.044l5.949 15.894h-1.045l-2.065-5.494zM288.178.565h.976v14.986h7.583v.908h-8.559V.565M97.287 22.548h4.417l2.16 10.728c.216 1.057.216 1.801.216 1.801h.048s.023-.744.288-1.801l2.64-10.728h3.384l2.569 10.728c.263 1.057.288 1.801.288 1.801h.048s0-.744.216-1.801l2.352-10.728h4.344l-4.344 17.161h-4.681l-2.16-8.664c-.263-1.104-.336-2.017-.336-2.017h-.048s-.072.913-.335 2.017l-2.161 8.664h-4.728l-4.177-17.161M125.151 22.548h10.753v3.6h-6.552v3.121h5.232v3.599h-5.232v3.241h6.888v3.6h-11.089V22.548M141.663 22.548h4.2v13.561h7.009v3.6h-11.209V22.548M157.575 22.548h4.2v13.561h7.009v3.6h-11.209V22.548M104.707 60.801c2.135 0 3.497-1.317 3.497-3.474s-1.475-3.519-3.519-3.519h-4.473v6.993h4.495zm-.158-7.902c1.77 0 3.019-1.225 3.019-3.11 0-1.862-1.18-3.065-3.043-3.065h-4.313v6.175h4.337zm-5.314-7.083h5.336c2.316 0 4.019 1.543 4.019 3.973 0 1.726-.84 2.884-2.067 3.474v.046c1.567.43 2.703 1.974 2.703 4.018 0 2.656-1.885 4.382-4.428 4.382h-5.563V45.816zm16.101 0h.976v10.399c0 2.997 1.953 4.836 4.95 4.836s4.972-1.839 4.972-4.882V45.816h.976V56.26c0 3.497-2.429 5.722-5.926 5.722-3.497 0-5.948-2.225-5.948-5.722V45.816M134.162 61.71h.977V45.816h-.977zM142.314 45.816h.977v14.985h7.583v.908h-8.56V45.816M160.98 60.801c4.224 0 7.062-2.475 7.062-7.038 0-4.541-2.838-7.039-7.062-7.039h-3.859v14.077h3.859zm-4.835-14.985h4.995c4.722 0 7.923 2.906 7.923 7.947 0 5.062-3.201 7.946-7.923 7.946h-4.995V45.816zM175.243 61.71h.977V45.816h-.977zM183.396 45.816h.909l9.059 12.464c.523.727 1.294 1.998 1.294 1.998h.045s-.113-1.203-.113-1.998V45.816h.976v15.893h-.908l-9.059-12.465c-.523-.726-1.294-1.998-1.294-1.998h-.045s.113 1.203.113 1.998v12.465h-.977V45.816m26.206-.273c3.586 0 5.539 1.794 5.539 1.794l-.59.749s-1.907-1.612-4.949-1.612c-3.997 0-6.903 3.178-6.903 7.289 0 4.132 2.838 7.288 6.766 7.288 3.406 0 5.449-2.612 5.449-2.612v-3.065h-2.838v-.908h3.815v7.243h-.977v-1.385c0-.341.023-.681.023-.681h-.045s-1.908 2.339-5.427 2.339c-4.428 0-7.788-3.611-7.788-8.219 0-4.587 3.428-8.22 7.925-8.22M99.235 83.709h.977V67.816h-.977zM107.388 67.816h.908l9.059 12.464c.522.727 1.294 1.998 1.294 1.998h.046s-.114-1.203-.114-1.998V67.816h.977v15.893h-.909l-9.059-12.465c-.522-.726-1.294-1.998-1.294-1.998h-.046s.114 1.203.114 1.998v12.465h-.976V67.816m18.826 13.441s1.612 1.771 4.246 1.771c1.976 0 3.542-1.226 3.542-3.133 0-4.519-8.129-3.27-8.129-8.243 0-2.111 1.885-4.109 4.769-4.109 2.588 0 4.042 1.476 4.042 1.476l-.545.84s-1.364-1.362-3.475-1.362c-2.361 0-3.768 1.589-3.768 3.133 0 4.2 8.127 2.906 8.127 8.22 0 2.293-1.77 4.131-4.609 4.131-3.133 0-4.858-1.975-4.858-1.975l.658-.749M144.698 68.724h-5.926v-.908h12.829v.908h-5.926v14.985h-.977V68.724M156.509 83.709h.976V67.816h-.976zM168.316 68.724h-5.925v-.908h12.828v.908h-5.926v14.985h-.977V68.724M179.9 67.816h.976v10.399c0 2.997 1.953 4.836 4.95 4.836s4.973-1.839 4.973-4.882V67.816h.975V78.26c0 3.497-2.428 5.721-5.925 5.721s-5.949-2.224-5.949-5.721V67.816M202.381 68.724h-5.926v-.908h12.828v.908h-5.926v14.985h-.976V68.724"/><mask id="usb" fill="#fff"><use xlink:href="#usa"/></mask><path fill="#4D4E4C" mask="url(#usb)" d="M214.191 67.816h8.697v.908h-7.72v6.516h6.334v.909h-6.334v6.652h8.15v.908h-9.127V67.816"/><path fill="#757676" d="M144.299 109.797C132.239 134.826 106.503 151 78.735 151 38.629 151 6 118.371 6 78.265A72.708 72.708 0 0 1 23.681 30.73C34.967 17.671 50.521 9.028 67.48 6.395L66.56.466C48.197 3.318 31.356 12.672 19.141 26.807A78.712 78.712 0 0 0 0 78.265C0 121.68 35.32 157 78.735 157c30.058 0 57.915-17.506 70.969-44.599l-5.405-2.604" mask="url(#usb)"/><path fill="#757676" d="M8.004 78.265c0 2.791.165 5.605.49 8.365l5.959-.701a65.709 65.709 0 0 1-.449-7.664c0-35.693 29.038-64.732 64.731-64.732 2.208 0 4.435.113 6.622.335l.606-5.97a71.952 71.952 0 0 0-7.228-.365c-39.001 0-70.731 31.73-70.731 70.732m70.731 64.731c-20.492 0-39.991-9.865-52.159-26.389l-4.831 3.558c13.294 18.053 34.599 28.831 56.99 28.831 34.309 0 63.59-24.474 69.623-58.194l-5.906-1.057c-5.521 30.856-32.318 53.251-63.717 53.251"/><path fill="#757676" d="M78.735 140.992c14.188 0 27.572-4.621 38.706-13.363l-3.705-4.719c-10.067 7.905-22.17 12.082-35.001 12.082-31.279 0-56.727-25.448-56.727-56.727 0-9.445 2.367-18.794 6.845-27.038l-5.272-2.864c-4.955 9.12-7.573 19.46-7.573 29.902 0 34.588 28.139 62.727 62.727 62.727"/><path fill="#757676" d="M30.012 78.265a48.82 48.82 0 0 1 16.065-36.158l-4.024-4.451C30.588 48.018 24.012 62.82 24.012 78.265c0 30.174 24.548 54.723 54.723 54.723 21.104 0 39.962-11.791 49.216-30.771l-5.393-2.629c-8.24 16.9-25.032 27.4-43.823 27.4-26.866 0-48.723-21.857-48.723-48.723"/><path fill="#757676" d="M68.068 38.956l-1.567-5.792C46.197 38.66 32.016 57.206 32.016 78.265c0 7.358 1.663 14.402 4.942 20.935l5.363-2.691c-2.857-5.69-4.305-11.828-4.305-18.244 0-18.355 12.358-34.52 30.052-39.309m-6.576 76.208l-2.544 5.434c6.215 2.91 12.872 4.386 19.787 4.386a46.654 46.654 0 0 0 24.015-6.637l-3.088-5.145a40.648 40.648 0 0 1-20.927 5.782c-6.029 0-11.83-1.286-17.243-3.82"/><path fill="#525351" d="M230.634 69.292h-2.424v-.594h5.5v.594h-2.415v6.143h-.661v-6.143M235.079 68.698h.691l1.762 3.958c.155.345.326.823.326.823h.02s.182-.478.335-.823l1.764-3.958h.679l.537 6.737h-.661l-.374-4.715c-.028-.363-.018-.939-.018-.939h-.02s-.201.594-.354.939l-1.581 3.46h-.623l-1.582-3.46a13.516 13.516 0 0 1-.364-.958h-.019s.009.595-.019.958l-.374 4.715h-.661l.536-6.737"/></g></svg>